<?xml version="1.0" standalone="no"?>
<!DOCTYPE svg PUBLIC "-//W3C//DTD SVG 20010904//EN"
 "http://www.w3.org/TR/2001/REC-SVG-20010904/DTD/svg10.dtd">
<svg version="1.0" xmlns="http://www.w3.org/2000/svg"
 width="288.000000pt" height="288.000000pt" viewBox="0 0 288.000000 288.000000"
 preserveAspectRatio="xMidYMid meet">
<metadata>
Created by potrace 1.14, written by Peter Selinger 2001-2017
</metadata>
<g transform="translate(0.000000,288.000000) scale(0.100000,-0.100000)"
fill="#000000" stroke="none">
<path d="M1405 2631 c-11 -5 -114 -64 -230 -131 -115 -67 -226 -132 -245 -142
-50 -29 -191 -111 -215 -125 -11 -7 -27 -16 -35 -20 -8 -4 -46 -26 -85 -48
-38 -23 -97 -56 -130 -75 -113 -62 -105 -35 -105 -337 0 -145 2 -263 5 -263 4
0 78 40 232 127 53 29 75 70 72 131 -4 101 0 105 216 221 192 104 175 94 310
181 226 146 275 148 491 20 49 -29 107 -63 129 -75 22 -13 108 -62 190 -109
83 -48 157 -90 164 -94 49 -27 76 -141 52 -213 -19 -58 -60 -92 -225 -189
-133 -78 -167 -94 -200 -94 -33 1 -73 20 -216 104 -313 184 -344 203 -398 233
-29 16 -68 29 -86 29 -24 0 -96 -37 -272 -139 -131 -77 -261 -152 -289 -167
-265 -148 -313 -183 -339 -251 -12 -30 -16 -247 -5 -267 13 -24 24 -23 94 12
70 35 76 31 75 -57 -1 -93 -1 -103 9 -121 5 -10 22 -24 38 -32 15 -8 66 -38
113 -65 47 -28 123 -70 170 -94 47 -24 195 -109 330 -189 135 -80 259 -153
277 -163 17 -10 50 -30 73 -44 72 -46 87 -42 275 70 365 218 427 254 613 347
195 99 272 184 291 319 12 87 7 130 -22 193 -32 70 -64 91 -137 90 -103 0
-173 -70 -164 -163 7 -80 -5 -94 -153 -181 -74 -44 -137 -80 -138 -80 -2 0
-61 -34 -130 -76 -70 -41 -128 -74 -130 -72 -3 3 -11 75 -20 178 -13 153 -17
177 -34 209 -31 62 -124 89 -231 68 -73 -15 -93 -48 -105 -177 -6 -68 -17
-176 -20 -210 -2 -14 -3 -37 -4 -52 -1 -16 -6 -28 -12 -28 -5 0 -58 27 -116
61 -58 34 -128 74 -157 89 -257 143 -290 165 -303 206 -6 21 -12 62 -12 90 -2
91 25 116 284 268 106 62 135 76 159 71 16 -3 82 -36 145 -74 64 -37 136 -80
161 -94 25 -13 114 -65 199 -113 125 -72 162 -88 193 -88 29 1 74 22 181 84
78 45 268 154 422 243 154 88 285 167 290 176 6 9 11 86 11 171 2 171 1 174
-64 236 -32 31 -203 144 -217 144 -2 0 -29 15 -58 34 -30 19 -119 68 -198 109
-226 116 -489 265 -549 311 -30 23 -70 52 -87 65 -36 24 -96 35 -128 22z m52
-2117 c-3 -3 -12 -4 -19 -1 -8 3 -5 6 6 6 11 1 17 -2 13 -5z"/>
</g>
</svg>
